<?xml version="1.0" encoding="UTF-8"?><svg id="a" xmlns="http://www.w3.org/2000/svg" xmlns:xlink="http://www.w3.org/1999/xlink" viewBox="0 0 2000 2000"><defs><linearGradient id="b" x1="1229.3" y1="1017.98" x2="666.03" y2="787.55" gradientUnits="userSpaceOnUse"><stop offset="0" stop-color="#b02adf"/><stop offset="1" stop-color="#cf793b"/></linearGradient><linearGradient id="c" x1="1244.81" y1="980.06" x2="681.54" y2="749.63" xlink:href="#b"/></defs><text transform="translate(839.2 1303.38)" fill="#fff" font-family="Gotham-Light, Gotham" font-size="50" font-weight="300"><tspan x="0" y="0">TAGLINE HERE</tspan></text><polygon points="1120.1 891.9 1059.75 891.9 1049.8 870.74 1049.8 870.73 1024.58 817.04 998.06 760.58 973.59 708.5 948.36 762.25 887.45 891.9 881.17 905.28 857.09 956.51 793.77 1091.3 734.43 1091.3 797.74 956.51 821.82 905.28 828.1 891.9 918.67 699.08 941.12 651.3 1007.06 651.3 1028.24 696.36 1054.75 752.82 1079.97 806.51 1120.1 891.9" fill="url(#b)"/><polygon points="1202.52 956.51 1150.44 956.51 1213.76 1091.3 1153.43 1091.3 1090.11 956.51 959.06 956.51 895.75 1091.3 842.7 1091.3 906.01 956.51 930.09 905.28 936.37 891.9 972.81 814.33 999.33 870.77 999.33 870.79 989.42 891.9 983.13 905.28 1178.46 905.28 1172.18 891.9 1106.02 751.08 1080.79 697.39 1080.79 697.38 1059.14 651.3 1115.21 651.3 1134.05 691.39 1228.24 891.9 1234.53 905.28 1258.61 956.51 1321.92 1091.3 1265.86 1091.3 1202.52 956.51" fill="url(#c)"/></svg>